<?xml version="1.0" encoding="UTF-8" standalone="no"?>
<!-- Created with Inkscape (http://www.inkscape.org/) -->

<svg
   xmlns:dc="http://purl.org/dc/elements/1.1/"
   xmlns:cc="http://creativecommons.org/ns#"
   xmlns:rdf="http://www.w3.org/1999/02/22-rdf-syntax-ns#"
   xmlns:svg="http://www.w3.org/2000/svg"
   xmlns="http://www.w3.org/2000/svg"
   xmlns:sodipodi="http://sodipodi.sourceforge.net/DTD/sodipodi-0.dtd"
   xmlns:inkscape="http://www.inkscape.org/namespaces/inkscape"
   width="902.34491"
   height="599.02747"
   id="svg2"
   version="1.1"
   inkscape:version="0.91 r13725"
   sodipodi:docname="S.svg">
  <defs
     id="defs4" />
  <sodipodi:namedview
     id="base"
     pagecolor="#ffffff"
     bordercolor="#666666"
     borderopacity="1.0"
     inkscape:pageopacity="0.0"
     inkscape:pageshadow="2"
     inkscape:zoom="0.32536208"
     inkscape:cx="1762.6517"
     inkscape:cy="279.98119"
     inkscape:document-units="px"
     inkscape:current-layer="layer1"
     showgrid="false"
     inkscape:window-width="1276"
     inkscape:window-height="761"
     inkscape:window-x="0"
     inkscape:window-y="18"
     inkscape:window-maximized="0"
     fit-margin-top="0"
     fit-margin-left="0"
     fit-margin-right="0"
     fit-margin-bottom="0" />
  <metadata
     id="metadata7">
    <rdf:RDF>
      <cc:Work
         rdf:about="">
        <dc:format>image/svg+xml</dc:format>
        <dc:type
           rdf:resource="http://purl.org/dc/dcmitype/StillImage" />
        <dc:title></dc:title>
      </cc:Work>
    </rdf:RDF>
  </metadata>
  <g
     inkscape:label="Ebene 1"
     inkscape:groupmode="layer"
     id="layer1"
     transform="translate(1385.2078,-424.48412)">
    <path
       style="fill:#000000"
       d="m -1316.135,1023.3764 c -1.7875,-0.1724 -3.25,-0.7631 -3.25,-1.3129 0,-0.5497 -0.7875,-0.8929 -1.75,-0.7626 -2.6534,0.3591 -8.2306,-3.3194 -8.8864,-5.8612 -0.3192,-1.2375 -1.0448,-2.25 -1.6125,-2.25 -0.5676,0 -3.026,-0.9958 -5.463,-2.2129 -3.54,-1.768 -4.9408,-3.2906 -6.9664,-7.5724 -2.7295,-5.76967 -5.0885,-7.53147 -6.6883,-4.99517 -0.8392,1.3304 -1.2561,1.0882 -2.6725,-1.5528 -1.0803,-2.0144 -2.7082,-3.3452 -4.5695,-3.7357 -3.5215,-0.7388 -10.3914,-6.6668 -10.3914,-8.9666 0,-0.9173 -1.2375,-3.0583 -2.75,-4.7579 -4.7855,-5.3776 -7.0332,-8.6968 -9.3261,-13.7722 -1.226,-2.7139 -2.9089,-6.3432 -3.7398,-8.0652 -1.2252,-2.5393 -1.3006,-3.9566 -0.3987,-7.5 0.6115,-2.403 1.3908,-6.112 1.7317,-8.2422 0.3408,-2.1302 1.1092,-4.8302 1.7074,-6 2.3969,-4.6867 2.7755,-5.6613 2.7755,-7.1447 0,-0.8497 0.6307,-1.7869 1.4015,-2.0827 0.7708,-0.2958 1.6124,-1.3446 1.8703,-2.3307 0.5227,-1.9989 6.4549,-5.3557 7.8935,-4.4666 0.5073,0.3135 1.5508,0.049 2.3189,-0.589 0.7681,-0.6375 2.2542,-1.0138 3.3025,-0.8362 1.0483,0.1776 2.5543,-0.2151 3.3466,-0.8727 0.7924,-0.6575 3.5561,-1.3325 6.1417,-1.4999 2.7161,-0.1758 4.9143,-0.8589 5.206,-1.6177 0.2777,-0.7224 0.9153,-1.0598 1.4169,-0.7498 0.5016,0.3101 2.6423,-0.2778 4.7571,-1.3063 8.3631,-4.0674 11.5377,-5.1203 13.7581,-4.563 1.4075,0.3532 3.8349,-0.2326 6.1868,-1.4931 2.1288,-1.141 4.6381,-2.0745 5.5763,-2.0745 0.9382,0 1.9952,-0.4683 2.3489,-1.0406 0.3538,-0.5724 1.4719,-0.7777 2.4848,-0.4562 1.0744,0.341 2.185,-0.014 2.6659,-0.852 0.4533,-0.79 4.1992,-2.4167 8.3242,-3.6148 4.125,-1.1981 9.975,-3.01 13,-4.0264 3.025,-1.0164 7.075,-2.1636 9,-2.5494 1.925,-0.3858 4.7815,-1.3565 6.3478,-2.1572 1.5663,-0.8007 5.6966,-1.4991 9.1784,-1.5519 4.8689,-0.074 6.4265,-0.4603 6.746,-1.6737 0.4041,-1.5347 22.0945,-9.1502 25.9188,-9.1 0.93,0.012 1.9378,-0.3772 2.2396,-0.8654 0.3017,-0.4882 4.2657,-1.8671 8.809,-3.0643 4.5432,-1.1972 9.6104,-2.7902 11.2604,-3.5401 4.4116,-2.0049 17.5428,-5.508 20.6466,-5.508 1.4777,0 2.8449,-0.4743 3.0381,-1.0541 0.1933,-0.5798 2.3683,-1.4959 4.8334,-2.0357 8.9223,-1.9538 27.8658,-7.7327 29.5205,-9.0053 0.5712,-0.4394 4.0935,-1.287 7.8272,-1.8834 3.7337,-0.5965 8.6663,-1.7832 10.9613,-2.6372 5.5303,-2.0579 15.752,-5.1894 23.1728,-7.099 3.3,-0.8493 6.8098,-1.9536 7.7996,-2.4541 0.9898,-0.5006 3.9148,-1.3634 6.5,-1.9173 2.5852,-0.554 6.606,-1.4214 8.9351,-1.9275 2.3291,-0.5061 5.2541,-1.5659 6.5,-2.3551 1.2459,-0.7892 3.7747,-1.7502 5.6196,-2.1355 1.8448,-0.3852 5.3442,-1.5807 7.7762,-2.6565 2.4321,-1.0759 5.1977,-1.8285 6.1458,-1.6726 0.948,0.1559 2.1737,4e-4 2.7237,-0.3456 0.55,-0.3459 3.475,-1.3176 6.5,-2.1592 4.783,-1.3308 10.1016,-3.0614 17.5,-5.6943 1.1,-0.3915 5.6,-1.5101 10,-2.4857 4.4,-0.9757 11.1783,-2.8313 15.063,-4.1237 3.8846,-1.2923 9.8471,-2.6407 13.25,-2.9964 3.4028,-0.3557 6.187,-0.9711 6.187,-1.3676 0,-0.3965 2.8125,-1.2794 6.25,-1.962 3.4375,-0.6827 7.8248,-1.9436 9.7496,-2.8021 1.9248,-0.8584 5.0536,-1.732 6.9529,-1.9413 1.8992,-0.2093 3.9658,-0.806 4.5924,-1.326 0.6265,-0.52 1.4042,-0.6804 1.7281,-0.3564 0.3239,0.3239 2.9826,-0.2946 5.908,-1.3746 2.9254,-1.0799 7.0981,-2.2865 9.2725,-2.6811 2.1744,-0.3947 5.5494,-1.5209 7.5,-2.5027 1.9506,-0.9818 5.7965,-2.1114 8.5465,-2.5101 2.75,-0.3988 5.45,-1.0574 6,-1.4636 0.55,-0.4062 3.7,-1.3396 7,-2.0743 3.3,-0.7346 6.45,-1.6477 7,-2.029 0.55,-0.3814 2.575,-0.9349 4.5,-1.23 1.925,-0.2951 5.975,-1.6419 9,-2.9929 3.025,-1.3511 7.6509,-3.0343 10.2798,-3.7406 4.4011,-1.1823 4.6585,-1.4182 3.2478,-2.9769 -1.7864,-1.974 -1.0881,-3.0306 2.0032,-3.0306 1.2086,0 5.0711,-1.3293 8.5833,-2.9541 l 6.3859,-2.9541 -6.191,-0.046 c -3.405,-0.025 -6.4569,-0.4762 -6.782,-1.0022 -0.3251,-0.526 -1.1741,-0.7326 -1.8868,-0.4591 -0.7126,0.2735 -3.8423,0.098 -6.9547,-0.3902 -3.1125,-0.4881 -5.8742,-0.6723 -6.1371,-0.4094 -0.2629,0.2629 0.03,1.4313 0.6505,2.5965 0.9982,1.8739 0.9455,1.9676 -0.4572,0.8108 -2.2285,-1.8378 -11.8529,-5.2416 -12.9332,-4.5739 -0.4928,0.3046 -1.5317,0.026 -2.3085,-0.6184 -0.7768,-0.6447 -1.8123,-0.925 -2.301,-0.6229 -0.4888,0.302 -6.021,0.8338 -12.2938,1.1816 -6.2729,0.3478 -11.7772,0.8622 -12.2318,1.1432 -0.4546,0.281 -1.6913,-0.4173 -2.7482,-1.5518 -1.8382,-1.9731 -2.1062,-1.9943 -6.1734,-0.4901 -4.9994,1.8489 -10.9715,1.7949 -14.6995,-0.1329 -1.5073,-0.7795 -4.4572,-1.2017 -6.8113,-0.975 -2.2839,0.22 -4.3951,0.01 -4.6915,-0.4719 -0.2963,-0.4796 -2.1186,-0.5156 -4.0495,-0.08 -1.9584,0.4417 -3.7555,0.3957 -4.0643,-0.1041 -0.8079,-1.3072 -2.0887,-1.1001 -3.804,0.6152 -1.2778,1.2778 -2.9487,1.3616 -10.8214,0.5425 -9.9458,-1.0348 -23.3243,-1.9903 -36.3103,-2.5933 -4.4,-0.2043 -11.2976,-0.6425 -15.328,-0.9736 -4.9638,-0.4079 -7.7851,-0.2228 -8.7449,0.5738 -1.1034,0.9157 -1.9739,0.8113 -3.9323,-0.472 -1.8386,-1.2047 -3.015,-1.3805 -4.3735,-0.6534 -1.0221,0.547 -2.1195,0.7333 -2.4388,0.4141 -0.3192,-0.3193 -1.8409,-0.15 -3.3814,0.3761 -1.7068,0.5829 -3.9731,0.6046 -5.8011,0.056 -1.65,-0.4955 -6.095,-0.8561 -9.8777,-0.8015 -5.1373,0.074 -7.3468,-0.3252 -8.7313,-1.5781 -1.1978,-1.084 -2.3023,-1.3607 -3.1222,-0.7819 -1.8638,1.3154 -15.8966,0.9555 -18.532,-0.4753 -1.3495,-0.7326 -2.8714,-0.8885 -3.7694,-0.3859 -0.8283,0.4635 -4.0848,0.456 -7.2367,-0.017 -3.1519,-0.4728 -7.7989,-1.0265 -10.3266,-1.2304 -2.5278,-0.204 -9.5028,-1.3508 -15.5,-2.5486 -12.5182,-2.4999 -12.9142,-2.5347 -16.7844,-1.4716 -2.2498,0.618 -2.7781,0.4867 -2.4131,-0.5999 0.4898,-1.4581 -4.0113,-3.8911 -7.1989,-3.8911 -0.9695,0 -2.3188,-0.67 -2.9985,-1.4889 -0.6796,-0.819 -1.6193,-1.2519 -2.0882,-0.9622 -1.1382,0.7035 -11.7172,-2.4102 -12.5017,-3.6796 -0.3776,-0.611 -1.3023,-0.3801 -2.3786,0.594 -2.1193,1.918 -5.3663,0.9552 -10.9385,-3.2432 -1.9855,-1.496 -4.5082,-3.2929 -5.6061,-3.9931 -1.0978,-0.7001 -3.4183,-2.1834 -5.1567,-3.2961 -1.7384,-1.1126 -3.4118,-2.6773 -3.7186,-3.4769 -0.6238,-1.6255 -4.6207,-2.0181 -4.6207,-0.454 0,2.418 -1.9528,0.6705 -3.0731,-2.75 -0.6756,-2.0625 -2.7355,-5.5185 -4.5776,-7.68 -1.8421,-2.1615 -3.3493,-4.7965 -3.3493,-5.8556 0,-1.0591 -1.1488,-3.2909 -2.5529,-4.9596 -1.4041,-1.6687 -2.8058,-4.2982 -3.1148,-5.8433 -0.309,-1.5451 -1.4102,-3.577 -2.4471,-4.5153 -1.0369,-0.9384 -1.8852,-2.5098 -1.8852,-3.4921 0,-0.9823 -0.4304,-2.052 -0.9563,-2.3771 -0.526,-0.325 -0.7161,-1.2171 -0.4225,-1.9823 0.2985,-0.7777 -0.3823,-1.8816 -1.5436,-2.5031 -1.1453,-0.613 -2.0776,-2.1078 -2.0776,-3.331 0,-1.3746 -2.4738,-4.7796 -6.5,-8.9468 -3.575,-3.7001 -6.5,-7.341 -6.5,-8.0907 0,-0.7497 -0.9,-2.1776 -2,-3.1731 -1.1,-0.9954 -2.01,-2.7527 -2.0222,-3.9049 -0.012,-1.1523 -0.8656,-3.1923 -1.8964,-4.5334 -1.0308,-1.341 -1.6581,-3.0012 -1.3941,-3.6892 0.264,-0.6881 0.043,-2.0317 -0.4909,-2.9859 -1.7647,-3.1534 1.5918,-9.5938 8.9311,-17.1366 1.2041,-1.2375 2.9629,-2.25 3.9085,-2.25 0.9455,0 2.2793,-0.675 2.964,-1.5 0.6847,-0.825 1.9063,-1.5 2.7147,-1.5 0.8084,0 2.614,-0.9 4.0124,-2 1.3984,-1.1 3.8144,-2 5.3688,-2 1.5994,0 3.691,-0.9282 4.8184,-2.1384 1.576,-1.6916 2.7333,-2.0181 5.539,-1.5628 1.9507,0.3165 3.5467,0.2204 3.5467,-0.2136 0,-0.8793 12.9894,-7.0852 14.8298,-7.0852 0.6436,0 1.1702,-0.3517 1.1702,-0.7816 0,-0.43 2.1375,-1.3652 4.75,-2.0782 6.5016,-1.7746 12.284,-4.1987 15.1349,-6.3448 1.3116,-0.9875 3.1985,-1.7954 4.1931,-1.7954 2.3049,0 19.6109,-5.7772 22.3512,-7.4615 1.139,-0.7 5.8957,-2.5183 10.5707,-4.0406 12.0682,-3.9298 16.9919,-5.8846 16.9962,-6.7479 0,-0.4125 0.8557,-0.75 1.8968,-0.75 1.0412,0 2.143,-0.6514 2.4485,-1.4475 0.3055,-0.7962 2.4912,-1.9352 4.857,-2.5312 5.7214,-1.4412 13.8015,-5.129 13.8015,-6.2992 0,-0.5148 0.6986,-0.668 1.5524,-0.3403 0.8538,0.3276 2.5413,-0.047 3.75,-0.8331 1.2087,-0.7859 5.5726,-2.631 9.6976,-4.1004 4.125,-1.4693 8.2104,-3.2963 9.0787,-4.0599 0.8683,-0.7636 3.0119,-1.3884 4.7636,-1.3884 1.7517,0 3.9662,-0.4124 4.9213,-0.9165 0.955,-0.5042 3.156,-1.441 4.8912,-2.0819 1.7351,-0.6409 3.3652,-1.9702 3.6225,-2.954 0.3673,-1.4045 1.7759,-1.8834 6.5578,-2.2292 3.565,-0.2579 6.8311,-1.0947 7.8774,-2.0182 0.9831,-0.8676 3.2315,-1.8843 4.9963,-2.2593 4.9505,-1.0517 12.6524,-5.1265 14.0349,-7.4254 0.9611,-1.5982 1.899,-1.9369 4.1287,-1.491 1.6426,0.3285 3.178,0.103 3.5653,-0.5237 0.3742,-0.6054 1.5538,-1.1008 2.6213,-1.1008 1.2806,0 1.941,-0.6871 1.941,-2.0196 0,-1.8066 0.5013,-1.9718 4.75,-1.5655 3.7673,0.3603 5.6143,-0.049 8.9281,-1.9803 2.2979,-1.339 4.8696,-2.4346 5.7148,-2.4346 0.8452,0 2.0111,-0.8864 2.591,-1.9698 0.901,-1.6837 1.4159,-1.8051 3.5437,-0.8356 1.7827,0.8122 3.1258,0.8326 4.7309,0.072 6.418,-3.0421 9.742,-4.2664 11.5836,-4.2664 1.1219,0 2.318,-0.45 2.6579,-1 0.3399,-0.55 2.0663,-1 3.8365,-1 1.7702,0 4.1369,-0.6433 5.2594,-1.4295 1.1226,-0.7863 5.791,-2.3629 10.3744,-3.5036 4.5834,-1.1408 8.8276,-2.4775 9.4316,-2.9704 0.6039,-0.493 3.6856,-1.4937 6.8481,-2.2238 3.1625,-0.7301 5.75,-1.6751 5.75,-2.1001 0,-0.4249 1.0125,-0.7743 2.25,-0.7763 1.2375,0 3.7395,-0.9119 5.5601,-2.0219 1.8206,-1.11 3.7664,-1.7361 4.3241,-1.3915 0.5576,0.3447 2.0356,-0.3332 3.2844,-1.5064 1.3136,-1.2341 2.9368,-1.8773 3.8516,-1.5263 1.4084,0.5404 17.6738,-4.209 23.4632,-6.8511 1.2283,-0.5606 3.9283,-2.7259 6,-4.8118 2.0716,-2.0859 4.8916,-4.1146 6.2666,-4.5084 3.7922,-1.0858 5.7465,-1.8176 10.6702,-3.995 1.7436,-0.7711 4.5654,-1.681 6.2708,-2.0221 1.7053,-0.3411 3.3428,-1.012 3.6388,-1.491 0.296,-0.4789 1.8351,-0.8708 3.4202,-0.8708 1.5851,0 3.1351,-0.4096 3.4445,-0.9102 0.3094,-0.5006 3.7104,-1.4412 7.5578,-2.0901 3.8473,-0.649 8.6881,-1.9979 10.7573,-2.9976 2.0692,-0.9997 5.4239,-1.7706 7.455,-1.713 2.1865,0.062 4.4523,-0.5826 5.5547,-1.5803 1.0241,-0.9268 3.4074,-1.9659 5.2963,-2.3093 1.8889,-0.3433 5.3626,-1.2486 7.7193,-2.0118 2.3568,-0.7632 6.1818,-1.3904 8.5,-1.3938 2.3183,0 5.5651,-0.7289 7.2151,-1.6122 1.65,-0.8833 4.2297,-1.5858 5.7326,-1.5612 1.503,0.025 2.992,-0.3749 3.309,-0.8879 0.3171,-0.5129 1.5624,-0.9353 2.7674,-0.9387 1.2051,0 3.541,-0.7176 5.191,-1.587 1.7265,-0.9097 5.4706,-1.5863 8.8198,-1.5938 4.0564,-0.01 5.9825,-0.4372 6.357,-1.4131 0.2954,-0.77 1.6946,-1.4 3.1092,-1.4 1.4146,0 3.954,-0.4108 5.643,-0.9129 8.2599,-2.4555 19.9187,-4.9816 34.571,-7.4905 0.825,-0.1412 3.0421,-0.6115 4.9269,-1.045 2.6924,-0.6192 3.6924,-0.4251 4.6657,0.906 1.03,1.4086 2.5171,1.6205 8.8231,1.2573 4.1714,-0.2403 7.5843,-0.049 7.5843,0.4241 0,2.1371 2.2356,0.5413 3.5081,-2.5041 1.4667,-3.5103 1.8072,-3.6352 13.9919,-5.133 1.65,-0.2029 4.3974,-0.6405 6.1053,-0.9726 1.7407,-0.3384 5.0367,0.042 7.5,0.8658 3.1589,1.0563 5.6601,1.2319 8.8947,0.6244 2.475,-0.4648 4.95,-0.5079 5.5,-0.096 0.55,0.4121 3.6107,1.7846 6.8015,3.0499 4.7696,1.8913 6.2454,2.0983 8.2971,1.1635 1.3725,-0.6254 3.3219,-1.1371 4.3318,-1.1371 1.01,0 2.0542,-0.8329 2.3204,-1.851 0.3363,-1.286 1.8066,-2.0624 4.817,-2.5438 2.38313,-0.3811 4.94057,-1.1972 5.6832,-1.8135 1.05116,-0.8724 1.4756,-0.6412 1.91625,1.0439 0.45588,1.7433 1.31016,2.1644 4.39036,2.1644 2.1034,0 4.06554,0.3903 4.36033,0.8672 0.29683,0.4803 2.26181,0.4066 4.40407,-0.1652 3.17298,-0.8469 4.30028,-0.7297 6.27309,0.652 1.3227,0.9265 2.4049,2.2215 2.4049,2.8778 0,0.6564 1.575,1.6026 3.5,2.1027 1.925,0.5001 6.1093,1.7915 9.2984,2.8697 4.2108,1.4237 6.1525,1.6665 7.092,0.8868 1.4783,-1.2269 2.6904,-0.4651 2.0238,1.272 -0.2757,0.7185 2.4215,2.0581 7.0141,3.4837 4.1042,1.274 7.9862,2.9478 8.6266,3.7195 0.6405,0.7717 3.1178,2.3786 5.5052,3.5709 2.7397,1.3683 4.4513,2.9416 4.6403,4.2654 0.2366,1.6561 1.2466,2.2331 4.7996,2.7419 10.2843,1.4727 12.7927,2.145 18.7501,5.0251 3.4375,1.662 6.5016,3.4287 6.809,3.9261 0.3074,0.4975 1.6308,0.9044 2.9409,0.9044 1.3101,0 2.6378,0.4139 2.9504,0.9198 1.1154,1.8047 9.8928,6.1062 11.4568,5.6146 1.0308,-0.3241 3.3494,1.4339 6.5716,4.9825 2.7383,3.0157 5.5106,5.4831 6.1608,5.4831 1.9784,0 5.8376,9.0057 4.6652,10.8865 -0.5676,0.9107 -0.8026,5.1119 -0.5394,9.645 0.5133,8.8421 0.5556,8.76 -6.2654,12.1551 -11.5964,5.772 -14.6893,6.6399 -18.1092,5.0817 -1.7516,-0.798 -3.0188,-0.795 -4.6493,0.011 -1.2328,0.6097 -4.6054,1.4011 -7.4946,1.7587 -3.1307,0.3875 -5.5999,1.2701 -6.1116,2.1844 -0.594,1.0614 -1.0734,1.1865 -1.5559,0.4058 -1.3715,-2.2191 -18.5917,-0.5599 -24.1572,2.3275 -3.2155,1.6682 -8.4222,6.2921 -8.4222,7.4795 0,0.5855 -0.8449,1.0645 -1.8776,1.0645 -1.0326,0 -2.4377,0.675 -3.1224,1.5 -0.6847,0.825 -1.8543,1.5 -2.5992,1.5 -0.7449,0 -3.1685,2.2952 -5.3859,5.1004 -4.7442,6.0018 -10.0889,9.8751 -14.6474,10.6149 -1.9557,0.3173 -3.9955,1.5564 -5.0699,3.0795 -4.4914,6.3677 -8.29526,9.3561 -11.48973,9.0266 -2.44811,-0.2525 -3.17674,0.091 -3.39918,1.6037 -0.15572,1.0589 -1.09888,2.3811 -2.09591,2.9383 -0.99703,0.5573 -3.13308,2.5035 -4.74678,4.3249 -1.6137,1.8215 -3.49587,3.3117 -4.18261,3.3117 -0.68674,0 -1.53583,0.905 -1.88687,2.011 -0.35104,1.106 -1.95637,2.6926 -3.56742,3.5257 -1.611,0.8331 -2.9291,1.9531 -2.9291,2.489 0,0.5359 -0.9477,0.9743 -2.1061,0.9743 -1.1583,0 -2.991,1.125 -4.0726,2.5 -1.0815,1.375 -2.7857,2.5 -3.7869,2.5 -1.0012,0 -2.0794,0.675 -2.396,1.5 -0.3166,0.825 -1.3037,1.5 -2.1935,1.5 -0.8899,0 -3.604,1.4263 -6.0314,3.1696 -3.144,2.2578 -4.4135,3.8706 -4.4135,5.607 0,1.7314 -0.4249,2.2744 -1.4671,1.8744 -0.8214,-0.3151 -2.7309,0.6281 -4.3384,2.1431 -7.1469,6.7354 -11.5865,8.9514 -13.9788,6.9774 -1.2454,-1.0276 -1.6229,-1.0279 -1.9684,-0.001 -0.5026,1.4938 -7.8699,5.2299 -10.3127,5.2299 -0.9293,0 -2.2739,0.7039 -2.9879,1.5643 -0.8487,1.0225 -2.1399,1.353 -3.7284,0.9543 -1.387,-0.3481 -3.3504,-0.015 -4.5742,0.7771 -3.429,2.2183 -9.3052,2.7625 -12.3993,1.1484 -3.654,-1.9061 -3.6475,-1.9075 -7.7127,1.6618 -1.9456,1.7083 -4.5488,3.0805 -5.7848,3.0493 -11.7496,-0.2964 -17.1295,-1.0868 -18.0015,-2.6449 -0.8552,-1.5283 -1.1211,-1.4846 -2.9562,0.4851 -1.3519,1.4512 -2.7206,1.9759 -4.153,1.5923 -1.1751,-0.3146 -3.1491,-0.8531 -4.3866,-1.1965 -1.663,-0.4616 -2.25,-0.2027 -2.25,0.9921 0,0.8892 -0.7875,1.631 -1.75,1.6485 -2.638,0.048 -5.0348,2.2627 -5.8157,5.3741 -0.6133,2.4435 -1.078,2.7265 -3.8163,2.3242 -1.7149,-0.252 -4.5733,0.2356 -6.352,1.0834 -2.7979,1.3337 -3.5852,1.3536 -5.839,0.1474 -2.3114,-1.237 -2.7133,-1.2007 -3.5657,0.3225 -1.3016,2.3255 -4.5489,2.1685 -5.8613,-0.2838 -0.6127,-1.1447 -2.0938,-2 -3.4638,-2 -1.3163,0 -3.0683,-0.675 -3.8933,-1.5 -0.825,-0.825 -2.4056,-1.5 -3.5125,-1.5 -1.1068,0 -2.301,-0.467 -2.6538,-1.0379 -1.03,-1.6665 -0.8335,-11.8212 0.2554,-13.2012 0.5472,-0.6935 1.283,-3.1504 1.6351,-5.4599 0.3522,-2.3095 1.6108,-5.844 2.797,-7.8545 1.1862,-2.0104 2.2478,-5.1562 2.3592,-6.9906 0.1212,-1.9969 1.662,-5.3668 3.8396,-8.3979 2.0004,-2.7844 3.6371,-5.6615 3.6371,-6.3936 0,-0.7321 0.3375,-1.6685 0.75,-2.081 0.4125,-0.4125 0.7552,-1.05 0.7616,-1.4167 0.03,-1.7077 3.0093,-7.8877 4.7358,-9.8221 1.9043,-2.1338 1.9019,-2.1624 -0.2356,-2.8408 -1.1876,-0.3769 -3.3636,-0.2336 -4.8355,0.3185 -1.472,0.5521 -4.8138,1.5912 -7.4263,2.3091 -2.6125,0.7179 -4.75,1.657 -4.75,2.087 0,0.4299 -2.16,0.7816 -4.8,0.7816 -2.64,0 -5.2275,0.402 -5.75,0.8933 -1.2898,1.2127 -10.6679,3.1067 -15.3826,3.1067 -2.9634,0 -3.9502,0.4439 -4.3452,1.9545 -0.3026,1.1571 -1.6761,2.1846 -3.3667,2.5185 -5.4181,1.0703 -16.8644,4.8403 -20.0083,6.5901 -1.734,0.9651 -5.6325,2.2696 -8.6633,2.8988 -3.0308,0.6292 -5.7604,1.7951 -6.0658,2.591 -0.3396,0.8848 -1.9276,1.4471 -4.0867,1.4471 -1.9423,0 -3.5314,0.4804 -3.5314,1.0674 0,0.6206 -0.8571,0.7954 -2.0475,0.4176 -1.3939,-0.4424 -3.1573,0.1966 -5.5239,2.0017 -2.0803,1.5867 -5.1384,2.8037 -7.6147,3.0304 -4.9616,0.4541 -8.1955,2.978 -5.8139,4.5374 1.3069,0.8557 1.2747,1.1149 -0.25,2.0135 -0.9625,0.5673 -1.75,1.6841 -1.75,2.4817 0,1.8577 -2.9354,1.8138 -5.4411,-0.082 -2.7886,-2.1091 -5.0767,-1.8196 -8.1534,1.0318 -2.8857,2.6744 -4.8826,3.1551 -5.9476,1.4319 -0.3631,-0.5875 -1.4022,-0.7525 -2.3091,-0.3667 -0.9068,0.3858 -2.8974,0.6335 -4.4234,0.5504 -1.8401,-0.1002 -2.9886,0.4443 -3.4101,1.6167 -1.1006,3.0615 -4.1222,5.2677 -7.2145,5.2677 -1.6405,0 -3.2103,-0.3681 -3.4883,-0.818 -0.2781,-0.4499 -2.2545,-0.7332 -4.3921,-0.6295 -2.8495,0.1382 -4.7406,1.0234 -7.0879,3.318 -1.7608,1.7212 -4.2592,3.1295 -5.552,3.1295 -1.4037,0 -3.0103,1.007 -3.9885,2.5 -1.007,1.5369 -2.5788,2.5 -4.0799,2.5 -1.4183,0 -2.8904,0.8383 -3.5121,2 -0.5887,1.1 -1.6814,2 -2.4282,2 -0.7468,0 -1.6414,0.7391 -1.9881,1.6425 -0.5285,1.3774 -1.6609,1.5462 -7.0176,1.0459 -5.2494,-0.4902 -6.4946,-0.317 -6.9892,0.9718 -0.6132,1.598 -0.7459,1.5905 -8.8866,-0.4987 -3.4872,-0.895 -3.883,-0.7847 -4.6771,1.3037 -0.4844,1.2742 -2.0788,2.5855 -3.6114,2.9701 -1.5092,0.3788 -3.8527,1.5608 -5.2077,2.6267 -1.3551,1.0659 -3.48,1.938 -4.722,1.938 -1.242,0 -2.5369,0.7264 -2.8776,1.6142 -0.4292,1.1188 -1.4211,1.461 -3.2312,1.115 -3.2457,-0.6205 -9.2838,0.9545 -11.6194,3.0308 -0.9659,0.8586 -2.0376,1.2797 -2.3815,0.9358 -0.344,-0.344 -1.4944,-0.1603 -2.5564,0.4081 -1.0621,0.5684 -3.253,1.071 -4.8686,1.117 -1.6698,0.048 -2.9374,0.6335 -2.9374,1.3581 0,1.1899 -5.2439,4.421 -7.1751,4.421 -0.4773,0 -2.655,1.1827 -4.8393,2.6283 -2.7833,1.8419 -4.3477,2.3319 -5.2286,1.6379 -1.9038,-1.5 -6.757,-2.451 -6.757,-1.3242 0,1.6515 -3.9903,4.8147 -9.7494,7.7285 -3.0163,1.5261 -5.7048,3.3496 -5.9744,4.0522 -0.2696,0.7025 -1.1471,1.2773 -1.9499,1.2773 -0.8029,0 -2.9574,1.1423 -4.7878,2.5384 -2.2275,1.699 -4.4375,2.4819 -6.6833,2.3673 -3.1863,-0.1625 -9.5805,1.7024 -8.7351,2.5478 0.2186,0.2186 4.2185,0.6291 8.8887,0.9123 4.6701,0.2832 13.7787,0.8356 20.2412,1.2276 8.618,0.5226 11.75,0.4053 11.75,-0.4404 0,-1.8877 2.7264,-1.3071 3.2492,0.6918 0.5285,2.0211 7.7878,3.5012 15.2508,3.1096 5.2993,-0.2781 6.1114,-0.2586 19.5,0.4674 6.325,0.343 15.325,0.8235 20,1.0678 25.6734,1.3415 30.0536,1.6509 36,2.5431 6.9497,1.0427 17.651,1.7015 38.5,2.3701 7.15,0.2292 16.375,0.7348 20.5,1.1234 4.125,0.3886 11.775,0.8355 17,0.9931 13.5254,0.408 45.154,1.4825 61,2.0723 7.425,0.2764 14.0481,0.6867 14.718,0.9118 0.6699,0.2251 1.5029,-0.052 1.8511,-0.6152 0.3483,-0.5635 1.3752,-0.7397 2.282,-0.3917 1.3054,0.5011 31.0064,1.716 43.1489,1.7651 12.6911,0.051 60.9738,5.1794 73.5,7.8063 2.75,0.5767 7.2273,1.2559 9.9495,1.5093 2.7222,0.2534 6.4604,1.3522 8.3072,2.4418 1.8467,1.0896 4.8739,1.981 6.7271,1.981 2.3259,0 3.4697,0.5083 3.6929,1.6411 0.3267,1.6584 7.3475,4.3147 11.481,4.3438 1.8785,0.013 11.9564,4.5385 13.3423,5.9911 1.2933,1.3555 7.0217,5.024 7.8452,5.024 2.4038,0 11.1548,5.8176 11.1548,7.4157 0,2.7586 2.69654,6.6184 5.25,7.5149 1.9805,0.6952 2.75,1.6452 2.75,3.395 0,1.3362 0.675,2.9897 1.5,3.6744 0.825,0.6847 1.5,1.8648 1.5,2.6225 -2.09427,31.24872 -15.39758,51.8983 -45.495,62.4881 -2.1972,0.7631 -6.4322,2.6199 -9.411,4.1262 -3.9014,1.9729 -5.768,2.4468 -6.6743,1.6946 -0.9107,-0.7558 -1.5224,-0.5723 -2.2144,0.6642 -0.7707,1.3772 -1.829,1.5888 -5.4582,1.0914 -3.6998,-0.5071 -4.8189,-0.2671 -6.2796,1.347 -0.9776,1.0802 -2.3463,1.964 -3.0415,1.964 -0.6951,0 -2.5379,0.6334 -4.095,1.4075 -5.7245,2.8461 -8.0732,3.6355 -19.831,6.665 -14.3227,3.6904 -20.3225,5.0006 -22.9539,5.0124 -1.0747,0.01 -2.4282,0.4023 -3.0079,0.8834 -1.5448,1.2821 -9.7159,4.0019 -12.0382,4.0071 -2.1162,0.01 -10.9226,2.7829 -21.1706,6.6788 -3.3938,1.2902 -6.8547,2.3458 -7.6909,2.3458 -0.8363,0 -1.7657,0.3969 -2.0655,0.882 -0.2998,0.485 -2.3276,0.9065 -4.5063,0.9366 -2.1787,0.03 -4.8258,0.5173 -5.8825,1.0829 -1.0567,0.5655 -2.1525,0.7969 -2.4352,0.5142 -0.2827,-0.2827 -3.3467,0.8581 -6.8087,2.5352 -3.8804,1.8796 -7.8674,3.0491 -10.395,3.0491 -4.3754,0 -8.5453,2.2065 -8.5453,4.5216 0,1.5178 -3.81,4.0018 -4.7288,3.083 -0.3066,-0.3066 0.1819,-0.8412 1.0857,-1.188 2.2076,-0.8472 2.0707,-2.1173 -0.369,-3.423 -1.6204,-0.8672 -2.6425,-0.614 -5.25,1.3007 -2.1486,1.5776 -4.7192,2.4169 -7.641,2.4947 -2.4217,0.064 -4.8742,0.5884 -5.45,1.1642 -0.5758,0.5758 -1.9694,1.0612 -3.0969,1.0786 -1.1275,0.017 -2.9235,0.6925 -3.9911,1.5 -1.0677,0.8076 -2.8033,1.4682 -3.857,1.4682 -3.5221,0 -16.151,3.1469 -20.5546,5.1218 -3.7308,1.6731 -12.662,4.0692 -19.6473,5.271 -1.1,0.1893 -4.7983,1.3033 -8.2185,2.4757 -3.4201,1.1723 -7.2716,2.1315 -8.5588,2.1315 -1.2873,0 -3.1951,0.625 -4.2397,1.3888 -1.0446,0.7638 -2.3977,1.1975 -3.0069,0.9637 -0.6092,-0.2338 -2.428,0.2635 -4.0419,1.1051 -1.6138,0.8416 -3.8762,1.5329 -5.0277,1.5363 -1.1513,0 -4.7093,0.9061 -7.9065,2.0061 -3.1972,1.1 -7.0661,2 -8.5975,2 -1.5315,0 -3.0151,0.3731 -3.2969,0.8292 -0.2818,0.456 -3.1209,1.3935 -6.309,2.0833 -3.1881,0.6899 -8.0466,1.8467 -10.7966,2.5707 -15.6392,4.1176 -25.5164,6.9082 -29.5,8.3347 -2.475,0.8863 -4.8279,1.5181 -5.2286,1.4039 -1.5771,-0.4491 -12.1792,2.8373 -13.7557,4.264 -0.9203,0.8329 -3.2987,1.5142 -5.2854,1.5142 -1.9868,0 -3.8904,0.45 -4.2303,1 -0.3399,0.55 -1.6899,1 -3,1 -1.3101,0 -2.644,0.424 -2.9643,0.9423 -0.3203,0.5182 -2.5968,1.2443 -5.059,1.6135 -2.4622,0.3692 -4.4767,1.0345 -4.4767,1.4783 0,0.4439 -1.4321,1.1216 -3.1824,1.506 -1.7503,0.3844 -4.6889,1.5452 -6.5304,2.5795 -1.8414,1.0342 -4.6632,1.8804 -6.2706,1.8804 -2.8775,0 -4.5921,0.5468 -12.5166,3.9916 -4.7238,2.0534 -11.9518,4.1123 -15.5945,4.4422 -1.4269,0.1292 -3.6645,0.9845 -4.9725,1.9006 -1.3079,0.9161 -3.4252,1.6656 -4.7052,1.6656 -1.2799,0 -3.5423,0.6218 -5.0275,1.3818 -4.031,2.0627 -11.0287,3.0055 -12.6039,1.6983 -1.979,-1.6425 -4.9182,-0.8563 -10.6258,2.8421 -2.8108,1.8213 -9.0165,4.4257 -13.7906,5.7876 -4.774,1.3618 -12.055,3.5877 -16.18,4.9463 -4.125,1.3587 -8.625,2.7256 -10,3.0377 -1.3749,0.3121 -3.2223,1.1945 -4.1053,1.9609 -0.8829,0.7665 -2.2874,1.1319 -3.1209,0.812 -0.8468,-0.3249 -1.7641,0.066 -2.0786,0.8855 -0.4342,1.1316 -1.3783,1.2831 -4.129,0.6627 -2.5383,-0.5724 -3.5661,-0.4618 -3.5661,0.3838 0,0.6534 -1.9125,1.8762 -4.25,2.7172 -2.4037,0.8649 -4.6805,2.4791 -5.2411,3.7158 -1.3348,2.9452 -3.7885,3.5583 -8.0596,2.0139 -2.3103,-0.8355 -3.8025,-0.9383 -4.2539,-0.2931 -1.7425,2.4901 -6.9842,4.7824 -11.1593,4.8802 -2.4949,0.059 -4.9861,0.376 -5.5361,0.7055 -0.55,0.3295 -2.6875,0.9037 -4.75,1.2758 -2.3047,0.4159 -3.75,1.2373 -3.75,2.1314 0,0.9496 -1.0415,1.4546 -3,1.4546 -1.7408,0 -3,0.5272 -3,1.2559 0,2.175 -8.2365,4.8776 -15.5831,5.1132 -2.5439,0.082 -5.5598,1.10727 -8,2.72077 -7.969,5.2691 -9.5365,6.007 -11.4625,5.3957 -1.106,-0.351 -1.9544,-0.157 -1.9544,0.4471 0,0.587 -0.8393,1.0673 -1.8651,1.0673 -1.0259,0 -2.9384,0.8285 -4.25,1.8411 -2.9102,2.2465 -6.6837,3.2935 -7.4429,2.0651 -0.9175,-1.4846 -2.2667,-1.0338 -2.9027,0.9699 -0.4081,1.286 -2.5524,2.4042 -6.8174,3.555 -6.2774,1.6938 -10.5511,3.0766 -14.2219,4.6017 -2.5959,1.0786 -7.1679,1.5475 -11.25,1.1539 z m 93.4167,-297.85327 c -0.3667,-0.3667 -0.6667,-1.1317 -0.6667,-1.7 0,-0.6266 0.4658,-0.5676 1.1833,0.15 0.6509,0.6508 0.9509,1.4158 0.6667,1.7 -0.2842,0.2841 -0.8167,0.2166 -1.1833,-0.15 z"
       id="path2996"
       inkscape:connector-curvature="0"
       sodipodi:nodetypes="csccsssccssscccccsscccsccsccccscccsssscsccscscsccscccssccccccccssccsccccscsccscccscccsccscscccsscccccccssscccccscccccccccsssccscscccscsssscscccssscccccssssssccsssccscscsccscccssccccccsscssscscccssscccsscscssccccccsscssccccscccsccssccccsccccccccscscsscscsscccscccsccsccsscssccscsssssssccssccsscsscssscscccssccccscccccsccccsccssscscccsssccccssscsccsscsssscscscsscscscccscscscccccccscccsccssccsscsscsscscsssscsssscccsscscccsscsscccccscscscccsscccscssscsccsccscccsssccsscccsccssscssscssccsscscccccccscccccscssscscsscccscccssccs" />
  </g>
</svg>
