<?xml version="1.0" encoding="UTF-8" standalone="no"?>
<!-- Created with Inkscape (http://www.inkscape.org/) -->

<svg
   xmlns:dc="http://purl.org/dc/elements/1.1/"
   xmlns:cc="http://creativecommons.org/ns#"
   xmlns:rdf="http://www.w3.org/1999/02/22-rdf-syntax-ns#"
   xmlns:svg="http://www.w3.org/2000/svg"
   xmlns="http://www.w3.org/2000/svg"
   xmlns:sodipodi="http://sodipodi.sourceforge.net/DTD/sodipodi-0.dtd"
   xmlns:inkscape="http://www.inkscape.org/namespaces/inkscape"
   width="3525.3032"
   height="677.27478"
   id="svg2"
   version="1.1"
   inkscape:version="0.91 r13725"
   sodipodi:docname="Stepp0r_white.svg">
  <defs
     id="defs4" />
  <sodipodi:namedview
     id="base"
     pagecolor="#ffffff"
     bordercolor="#666666"
     borderopacity="1.0"
     inkscape:pageopacity="0.0"
     inkscape:pageshadow="2"
     inkscape:zoom="0.48166069"
     inkscape:cx="2279.1576"
     inkscape:cy="320.61732"
     inkscape:document-units="px"
     inkscape:current-layer="layer1"
     showgrid="false"
     inkscape:window-width="1276"
     inkscape:window-height="761"
     inkscape:window-x="0"
     inkscape:window-y="18"
     inkscape:window-maximized="0"
     fit-margin-top="0"
     fit-margin-left="0"
     fit-margin-right="0"
     fit-margin-bottom="0" />
  <metadata
     id="metadata7">
    <rdf:RDF>
      <cc:Work
         rdf:about="">
        <dc:format>image/svg+xml</dc:format>
        <dc:type
           rdf:resource="http://purl.org/dc/dcmitype/StillImage" />
        <dc:title />
      </cc:Work>
    </rdf:RDF>
  </metadata>
  <g
     inkscape:label="Ebene 1"
     inkscape:groupmode="layer"
     id="layer1"
     transform="translate(1385.2078,-404.893)">
    <path
       style="fill:#ffffff;fill-opacity:1;stroke:#000000;stroke-width:11.60000038;stroke-miterlimit:4;stroke-dasharray:none;stroke-opacity:1"
       d="m 1239.615,1072.5673 c -12.7086,-17.8502 34.9143,-49.871 12.8117,-55.6572 6.74,-15.8351 12.6883,-26.72037 23.7984,-42.10337 4.9981,-14.57734 20.0688,-31.40923 30.1664,-48.442 18.6129,-23.13727 52.2385,-74.55371 49.2236,-69.9865 35.5938,-38.93406 38.1319,-72.13815 -13.3423,-34.1842 -87.5093,42.67388 -174.3735,92.31043 -275.3839,94.5031 -94.41712,15.96194 -212.99045,-23.25684 -236.5187,-124.0074 15.65923,-67.62392 93.30013,-90.54495 145.70567,-125.4366 25.26733,-9.70107 67.58253,-34.95956 16.2596,-16.6244 -68.31913,33.54575 -138.42542,65.77096 -213.22057,79.4889 -49.41182,19.14081 -104.76032,25.92112 -153.364,40.4073 -41.55852,47.65222 -54.52081,76.3207 -69.3417,76.1398 -37.78031,32.84117 -83.61208,46.20525 -112.5119,90.5534 -36.44713,19.13022 -49.61127,20.85317 -24.9537,-23.8789 38.00516,-107.20734 101.86682,-204.01794 161.5834,-300.1491 12.33954,-73.34799 110.08255,-63.16851 165.5879,-60.1104 88.40417,10.82851 190.74862,6.22088 265.5001,59.1105 16.3081,53.5782 78.0886,-2.86164 124.3384,-11.4394 33.0181,-11.98638 75.9358,-22.7742 115.4902,-37.5222 52.2011,-16.77227 110.1335,-18.33443 156.7909,14.2343 45.9797,-4.97201 79.6165,87.36419 106.4344,57.7272 30.4313,-24.75742 27.827,-68.42722 69.3588,-79.0819 67.9072,-7.70779 -4.0927,18.05505 83.0216,38.1423 41.2319,25.79053 66.2724,51.7282 109.556,21.4513 59.099,-23.70465 121.741,-38.84073 178.6741,-62.4396 81.6352,-27.01066 -129.8515,-32.87193 -82.4284,-36.6416 -95.5576,-26.21245 -198.1177,-17.41864 -294.3902,0.87093 -8.0354,7.82712 -94.0179,28.18753 -74.0798,17.94477 -52.4491,-7.0344 -99.8536,-34.32524 -126.6784,-82.2463 -50.8141,-62.32674 70.3927,3.77804 99.5884,-34.6465 207.892,-37.31476 428.1692,7.6605 607.5486,117.8961 67.8627,30.61353 62.0133,97.46513 -12.373,97.7516 -55.3701,23.0062 -109.1603,38.77902 -167.386,55.0285 28.6387,32.63408 -68.2033,-14.96249 -73.7578,46.7594 13.2391,47.67141 20.7566,103.11356 70.7912,131.214 33.4533,18.53133 104.0655,85.27023 87.5012,61.9981 14.1116,13.38903 23.2412,22.57452 49.7504,41.9935 24.4982,49.01667 -115.4141,7.33343 -91.7504,6.2994 -98.6331,-21.93183 -215.1235,-52.81012 -256.0002,-157.466 -8.9596,-38.36848 -41.0622,-39.96967 -56.9477,-66.5765 -24.5613,4.59558 -39.0799,56.50309 -65.3596,73.9364 -35.1159,28.18811 -68.5115,53.77107 -103.976,81.9572 -29.4302,8.80651 -49.8761,38.13489 -78.1273,51.3564 -42.2867,9.87497 -44.6157,60.06737 -62.1019,40.53957 -18.8642,12.3654 -31.9527,28.3743 -50.4712,46.4504 -12.384,19.1499 -24.4646,13.1596 -35.0163,24.8857 z m 676,-191.43657 c -2.88,-1.90567 -2.334,3.4349 0,0 z m -934.29413,-30.4394 c 150.18843,-7.59274 280.05823,-94.73819 412.72953,-156.9236 75.428,-31.97698 16.0935,-53.399 -36.8131,-35.9224 -129.6561,22.14864 -254.5613,65.64245 -370.22033,128.8721 -22.43896,14.7908 -55.98979,31.04869 -72.64599,56.56039 20.97783,9.91985 44.38541,8.96932 66.94989,7.41351 z M 687.1149,710.41083 c 71.34314,-20.91677 149.95413,-47.98105 211.37264,-84.6423 -59.79055,3.59521 -135.03131,-27.23637 -185.25144,-5.0342 23.35498,30.94832 -28.144,64.9634 -32.0608,90.9489 l 5.9396,-1.2725 z M -1316.135,1023.3764 c -30.5316,-20.6428 -89.0505,-54.30292 -58.9782,-99.11787 161.6464,-56.508 328.5404,-99.80265 493.0079,-149.0613 79.72835,-30.64224 -163.8545,0.87621 -58.528,-16.3476 -94.669,-9.3128 -203.3385,9.59583 -285.8248,-40.4098 -6.7344,-32.98586 -59.5776,-62.11029 -34.7994,-95 120.3323,-49.69994 237.8711,-100.73619 362.6058,-137.5507 55.44072,-31.4904 123.28873,-39.50759 184.8592,-52.2415 35.77927,-5.38831 73.8458,-5.79723 109.22941,-4.7558 39.6011,19.49584 94.9296,28.13098 121.48279,66.1845 -13.65365,47.48633 -95.26324,25.19304 -124.89611,74.5383 -38.14288,39.58167 -89.03436,66.45791 -143.15869,59.9665 -36.95324,36.00709 -67.09411,-12.48808 -33.5,-44.8082 3.33163,-31.49434 -132.41453,25.93354 -102.9361,19.9337 -19.75441,16.89183 -57.90649,10.8603 -81.2302,34.1249 -48.1518,5.33548 -89.7273,30.62556 -133.4636,47.811 143.39044,17.05321 290.09199,6.69443 432.3637,31.5465 38.70365,-7.717 59.01743,74.92295 80.5162,31.1225 23.01561,-29.89918 51.66062,-54.16883 -3,-58.6646 -39.09256,3.03241 -124.8477,-89.70938 -37.6136,-58.0134 109.88194,5.13576 220.15433,1.94329 329.8209,2.3363 66.23058,-22.42111 139.71135,-29.12585 208.971496,-45.0928 77.062081,-0.33279 178.005948,-24.74129 241.571204,0.3245 -35.55968,23.49715 -80.739265,26.10283 -117.172101,50.5481 -63.176343,17.71348 -124.194392,54.44385 -193.970599,46.3369 32.44879,53.99354 133.135305,-12.96029 195.392699,-0.3986 65.138593,6.10197 -8.079189,68.35893 -10.9171,65.1328 -32.4319475,12.91974 -63.779215,37.18058 -99.082903,37.8859 -22.492729,6.3226 -46.267126,9.63161 -72.138196,12.1756 -21.02847,9.69012 -54.01477,-8.28986 -56.8543,25.3052 -27.94228,13.31449 -34.13408,37.72254 -58.91424,57.10409 78.93928,-15.26398 162.94438,-52.13123 243.026039,-40.35409 -9.936421,28.49242 -38.455873,32.27918 -51.643703,60.25 -56.412296,37.08315 -129.593696,43.47311 -193.508996,66.0179 -41.86452,19.95827 -83.56135,19.6728 -107.3771,-27.0512 -39.79703,-35.9165 14.66315,-87.51408 28.389,-126.5664 39.55369,-27.15774 -20.53188,-61.75948 15.0217,-65.5669 28.82647,-1.08904 99.25681,-81.79715 53.24601,-83.96986 -33.02666,21.99096 -67.16708,44.81364 -108.59781,46.13606 -62.77954,65.82072 -120.67955,138.60664 -193.5271,194.5385 -26.06144,4.92817 -29.95853,15.4745 -61.11351,31.339 -18.63777,9.72783 -71.39271,52.07165 -52.68819,42.0965 -39.76195,20.33487 -14.12344,-68.43989 11.5563,-84.685 23.95919,-41.96514 61.59114,-102.39063 -9.4499,-63.289 -49.03318,11.64637 -109.79818,35.59664 -148.3291,42.789 -158.63939,43.48478 -315.6804,87.3374 -466.5968,146.24377 l -11.25,1.1539 0,0 z M -15.385101,962.27313 C 12.776816,850.33409 76.628845,748.66451 137.6149,650.54253 c -2.10436,0.43926 73.91271,-99.61706 54.9256,-79.3528 101.13685,-62.15024 236.24046,-48.09557 337.6324,6.903 49.33713,13.92722 31.74629,57.08973 -4.2994,75.2162 -42.80976,33.69492 -88.82785,60.42165 -134.6362,80.8805 -40.7115,14.00029 -81.7202,39.63228 -122.2713,48.5275 -33.07555,-1.70952 -76.2649,-11.32004 -95.8511,27.4609 -27.66159,29.84139 -52.28437,57.44643 -92.129202,75.264 -29.871371,25.96014 -53.279735,52.42348 -78.9777993,71.75 -7.9437762,5.74121 -8.8318952,-1.30615 -17.3929997,5.0813 z M 297.8649,669.41133 c 32.62823,-19.71133 76.56758,-48.91515 96.4985,-70.3549 -52.73192,8.23379 -141.14703,-0.84148 -146.9115,16.1328 31.4383,7.11064 35.25782,47.11321 50.413,54.2221 z m 564.25004,65.7784 c 1.20941,-3.65614 2.46625,3.56227 0,0 z m 360.50006,-167 c 6.3913,-2.35209 -0.7298,3.3054 0,0 z"
       id="path2996"
       inkscape:connector-curvature="0"
       sodipodi:nodetypes="ccccccccccccccccccccccccccccccccccccccccccccccccccccccccccccccccccccccccccccccccccccccccccccccccccccccccccccccccccccccccccccccccc" />
  </g>
</svg>
